<mxfile host="app.diagrams.net" agent="Mozilla/5.0 (X11; Linux x86_64; rv:140.0) Gecko/20100101 Firefox/140.0" version="28.0.7">
  <diagram name="Page-1" id="DNHQ6VG1sB0LXGoutnUy">
    <mxGraphModel dx="937" dy="597" grid="1" gridSize="10" guides="1" tooltips="1" connect="1" arrows="1" fold="1" page="1" pageScale="1" pageWidth="850" pageHeight="1100" math="0" shadow="0">
      <root>
        <mxCell id="0" />
        <mxCell id="1" parent="0" />
        <mxCell id="I-sbZjvc8O697aPLjvK6-2" value="" style="rounded=1;whiteSpace=wrap;html=1;fillColor=none;strokeColor=light-dark(#000000,#97D077);strokeWidth=2;dashed=1;" parent="1" vertex="1">
          <mxGeometry x="20" y="190" width="800" height="340" as="geometry" />
        </mxCell>
        <mxCell id="I-sbZjvc8O697aPLjvK6-16" value="" style="rounded=1;whiteSpace=wrap;html=1;fillColor=none;strokeColor=#0e8088;dashed=1;strokeWidth=3;" parent="1" vertex="1">
          <mxGeometry x="30" y="240" width="450" height="270" as="geometry" />
        </mxCell>
        <mxCell id="I-sbZjvc8O697aPLjvK6-1" value="&lt;b&gt;&lt;font style=&quot;font-size: 17px;&quot;&gt;01-Active-Directory&lt;/font&gt;&lt;/b&gt;" style="text;html=1;align=center;verticalAlign=middle;whiteSpace=wrap;rounded=0;" parent="1" vertex="1">
          <mxGeometry x="25" y="100" width="170" height="40" as="geometry" />
        </mxCell>
        <mxCell id="I-sbZjvc8O697aPLjvK6-3" value="&lt;b&gt;&lt;font style=&quot;font-size: 17px;&quot;&gt;Proxmox Virtual Environment&lt;/font&gt;&lt;/b&gt;" style="text;html=1;align=center;verticalAlign=middle;whiteSpace=wrap;rounded=1;fillColor=none;strokeColor=none;" parent="1" vertex="1">
          <mxGeometry x="292.5" y="190" width="255" height="40" as="geometry" />
        </mxCell>
        <mxCell id="I-sbZjvc8O697aPLjvK6-5" value="&lt;div&gt;&lt;b&gt;&lt;font style=&quot;font-size: 18px;&quot;&gt;DC01&lt;/font&gt;&lt;/b&gt;&lt;/div&gt;&lt;div&gt;&lt;b&gt;&lt;font style=&quot;font-size: 18px;&quot;&gt;10.100.40.10/24&lt;/font&gt;&lt;/b&gt;&lt;/div&gt;" style="rounded=1;whiteSpace=wrap;html=1;fillColor=#fad9d5;strokeColor=#ae4132;strokeWidth=3;glass=1;" parent="1" vertex="1">
          <mxGeometry x="45" y="280" width="160" height="100" as="geometry" />
        </mxCell>
        <mxCell id="I-sbZjvc8O697aPLjvK6-6" value="&lt;div&gt;&lt;b&gt;&lt;font style=&quot;font-size: 16px;&quot;&gt;WKS01&lt;/font&gt;&lt;/b&gt;&lt;/div&gt;&lt;div&gt;&lt;b&gt;&lt;font style=&quot;font-size: 16px;&quot;&gt;10.100.40.192/24&lt;/font&gt;&lt;/b&gt;&lt;/div&gt;" style="rounded=1;whiteSpace=wrap;html=1;fillColor=#b0e3e6;strokeColor=#0e8088;glass=1;strokeWidth=2;" parent="1" vertex="1">
          <mxGeometry x="45" y="410" width="140" height="80" as="geometry" />
        </mxCell>
        <mxCell id="I-sbZjvc8O697aPLjvK6-7" value="&lt;div&gt;&lt;b&gt;&lt;font style=&quot;font-size: 18px;&quot;&gt;FS1&lt;/font&gt;&lt;/b&gt;&lt;/div&gt;&lt;div&gt;&lt;b&gt;&lt;font style=&quot;font-size: 18px;&quot;&gt;10.100.40.11/24&lt;/font&gt;&lt;/b&gt;&lt;/div&gt;&lt;div&gt;&lt;font style=&quot;font-size: 14px;&quot;&gt;&lt;b&gt;/srv/samba/Designers&lt;/b&gt;&lt;/font&gt;&lt;/div&gt;" style="rounded=1;whiteSpace=wrap;html=1;fillColor=#b1ddf0;strokeColor=#10739e;glass=1;" parent="1" vertex="1">
          <mxGeometry x="255" y="410" width="170" height="80" as="geometry" />
        </mxCell>
        <mxCell id="I-sbZjvc8O697aPLjvK6-8" value="&lt;div&gt;&lt;font style=&quot;font-size: 17px;&quot;&gt;&lt;b&gt;&lt;font&gt;Pi-Hole DNS&lt;br&gt;&lt;/font&gt;&lt;/b&gt;&lt;/font&gt;&lt;/div&gt;&lt;div&gt;&lt;font style=&quot;font-size: 17px;&quot;&gt;&lt;b&gt;&lt;font&gt;10.100.40.99/24&lt;/font&gt;&lt;/b&gt;&lt;/font&gt;&lt;/div&gt;" style="rounded=1;whiteSpace=wrap;html=1;fillColor=#d0cee2;strokeColor=#56517e;" parent="1" vertex="1">
          <mxGeometry x="620" y="210" width="150" height="80" as="geometry" />
        </mxCell>
        <mxCell id="I-sbZjvc8O697aPLjvK6-9" value="" style="endArrow=openThin;html=1;rounded=0;exitX=1;exitY=0.5;exitDx=0;exitDy=0;entryX=1;entryY=0.5;entryDx=0;entryDy=0;fillColor=#d0cee2;strokeColor=#56517e;strokeWidth=2;endFill=0;" parent="1" source="I-sbZjvc8O697aPLjvK6-6" target="I-sbZjvc8O697aPLjvK6-5" edge="1">
          <mxGeometry width="50" height="50" relative="1" as="geometry">
            <mxPoint x="405" y="360" as="sourcePoint" />
            <mxPoint x="465" y="310" as="targetPoint" />
            <Array as="points">
              <mxPoint x="235" y="450" />
              <mxPoint x="235" y="330" />
            </Array>
          </mxGeometry>
        </mxCell>
        <mxCell id="I-sbZjvc8O697aPLjvK6-13" value="" style="endArrow=openThin;html=1;rounded=0;fillColor=#d0cee2;strokeColor=#56517e;strokeWidth=2;endFill=0;" parent="1" edge="1">
          <mxGeometry width="50" height="50" relative="1" as="geometry">
            <mxPoint x="20" y="164.5" as="sourcePoint" />
            <mxPoint x="60" y="164.5" as="targetPoint" />
          </mxGeometry>
        </mxCell>
        <mxCell id="I-sbZjvc8O697aPLjvK6-14" value="&lt;b&gt;&lt;font style=&quot;font-size: 13px;&quot;&gt;Order of DNS queries&lt;/font&gt;&lt;/b&gt;" style="text;html=1;align=center;verticalAlign=middle;whiteSpace=wrap;rounded=0;" parent="1" vertex="1">
          <mxGeometry x="60" y="150" width="140" height="30" as="geometry" />
        </mxCell>
        <mxCell id="I-sbZjvc8O697aPLjvK6-17" value="&lt;font style=&quot;font-size: 16px;&quot;&gt;&lt;b style=&quot;color: light-dark(rgb(0, 0, 0), rgb(103, 171, 159));&quot;&gt;&lt;font&gt;testcorp.local&lt;/font&gt;&lt;/b&gt;&lt;/font&gt;" style="text;html=1;align=center;verticalAlign=middle;whiteSpace=wrap;rounded=0;fillColor=none;strokeColor=none;" parent="1" vertex="1">
          <mxGeometry x="185" y="240" width="140" height="30" as="geometry" />
        </mxCell>
        <mxCell id="T1BlekJ0P2L98JRMaTFF-3" value="" style="endArrow=openThin;html=1;rounded=0;entryX=1;entryY=0.25;entryDx=0;entryDy=0;exitX=0.5;exitY=0;exitDx=0;exitDy=0;fillColor=#b0e3e6;strokeColor=#0e8088;endSize=7;strokeWidth=3;endFill=0;" edge="1" parent="1" source="I-sbZjvc8O697aPLjvK6-7" target="I-sbZjvc8O697aPLjvK6-5">
          <mxGeometry width="50" height="50" relative="1" as="geometry">
            <mxPoint x="400" y="440" as="sourcePoint" />
            <mxPoint x="450" y="390" as="targetPoint" />
            <Array as="points">
              <mxPoint x="340" y="305" />
            </Array>
          </mxGeometry>
        </mxCell>
        <mxCell id="T1BlekJ0P2L98JRMaTFF-4" value="&lt;div&gt;&lt;font style=&quot;font-size: 13px;&quot;&gt;&lt;b&gt;Mapped drive&lt;/b&gt;&lt;/font&gt;&lt;/div&gt;&lt;div&gt;&lt;font style=&quot;font-size: 13px;&quot;&gt;&lt;b&gt;\\FS01\Designers&lt;/b&gt;&lt;/font&gt;&lt;/div&gt;" style="text;html=1;align=center;verticalAlign=middle;whiteSpace=wrap;rounded=1;fillColor=#b1ddf0;strokeColor=#10739e;glass=1;dashed=1;" vertex="1" parent="1">
          <mxGeometry x="325" y="250" width="125" height="40" as="geometry" />
        </mxCell>
        <mxCell id="T1BlekJ0P2L98JRMaTFF-5" value="" style="endArrow=openThin;html=1;rounded=0;exitX=0.5;exitY=1;exitDx=0;exitDy=0;endFill=0;strokeWidth=3;endSize=6;startSize=6;fillColor=#b0e3e6;strokeColor=#0e8088;" edge="1" parent="1">
          <mxGeometry width="50" height="50" relative="1" as="geometry">
            <mxPoint x="392.5" y="293.9999999999999" as="sourcePoint" />
            <mxPoint x="345" y="304" as="targetPoint" />
          </mxGeometry>
        </mxCell>
        <mxCell id="T1BlekJ0P2L98JRMaTFF-7" value="" style="endArrow=openThin;html=1;rounded=0;strokeColor=#56517e;align=center;verticalAlign=middle;fontFamily=Helvetica;fontSize=11;fontColor=default;labelBackgroundColor=default;exitX=0.996;exitY=0.368;exitDx=0;exitDy=0;exitPerimeter=0;entryX=0.5;entryY=1;entryDx=0;entryDy=0;fillColor=#d0cee2;strokeWidth=2;endFill=0;" edge="1" parent="1" source="I-sbZjvc8O697aPLjvK6-5" target="I-sbZjvc8O697aPLjvK6-8">
          <mxGeometry width="50" height="50" relative="1" as="geometry">
            <mxPoint x="420" y="360" as="sourcePoint" />
            <mxPoint x="470" y="310" as="targetPoint" />
            <Array as="points">
              <mxPoint x="520" y="317" />
              <mxPoint x="695" y="317" />
            </Array>
          </mxGeometry>
        </mxCell>
        <mxCell id="T1BlekJ0P2L98JRMaTFF-9" value="vmbr0" style="text;html=1;align=center;verticalAlign=middle;whiteSpace=wrap;rounded=1;fontFamily=Helvetica;fontSize=11;labelBackgroundColor=none;fillColor=#fad7ac;strokeColor=#b46504;glass=1;strokeWidth=2;" vertex="1" parent="1">
          <mxGeometry x="390" y="130" width="60" height="30" as="geometry" />
        </mxCell>
        <mxCell id="T1BlekJ0P2L98JRMaTFF-11" value="" style="endArrow=none;html=1;rounded=0;strokeColor=#b46504;align=center;verticalAlign=middle;fontFamily=Helvetica;fontSize=11;fontColor=default;labelBackgroundColor=default;entryX=0.5;entryY=1;entryDx=0;entryDy=0;exitX=0.5;exitY=0;exitDx=0;exitDy=0;fillColor=#fad7ac;strokeWidth=2;dashed=1;" edge="1" parent="1" source="I-sbZjvc8O697aPLjvK6-2" target="T1BlekJ0P2L98JRMaTFF-9">
          <mxGeometry width="50" height="50" relative="1" as="geometry">
            <mxPoint x="400" y="300" as="sourcePoint" />
            <mxPoint x="450" y="250" as="targetPoint" />
          </mxGeometry>
        </mxCell>
      </root>
    </mxGraphModel>
  </diagram>
</mxfile>
